<svg id="Capa_1" data-name="Capa 1" xmlns="http://www.w3.org/2000/svg" viewBox="0 0 480.23 146.19"><defs><style>.cls-1{fill:#063;}.cls-2{fill:#b2c40e;}</style></defs><path class="cls-1" d="M187.88,482.13h.48q7.6,0,10.2,5.77a9.63,9.63,0,0,1,.7,3.67V507.7a.18.18,0,0,0-.11.05h-3.61a.14.14,0,0,1-.11-.05V491.57q0-4-4.05-5.34a13.69,13.69,0,0,0-3.72-.32,7.6,7.6,0,0,0-5,1.4c-1.34.86-2,2.36-2,4.48V507.7a.18.18,0,0,0-.11.05h-3.61l-.11-.05V482.56a.21.21,0,0,0,.11-.05h3.61l.11.05v2.54A9.71,9.71,0,0,1,187.88,482.13Z" transform="translate(-57.52 -361.78)"/><path class="cls-1" d="M211.44,482.13h3.62l.05.11v16.07c0,2.85,1.51,4.64,4.53,5.4a11.51,11.51,0,0,0,3,.27,8.74,8.74,0,0,0,4.16-.76,4.88,4.88,0,0,0,2.75-2.75A8.31,8.31,0,0,0,230,498v-15.8a.14.14,0,0,1,.05-.11h3.67l.05.11v25.08l-.05.06H230l-.05-.06v-2.53a10.16,10.16,0,0,1-7.5,3q-4.8,0-7.5-2a8.68,8.68,0,0,1-3.62-7.23V482.24S211.37,482.17,211.44,482.13Z" transform="translate(-57.52 -361.78)"/><path class="cls-1" d="M247.14,468.27h3.73v13.86h7V486h-7v14.78a3.64,3.64,0,0,0,.59,2.05,3.16,3.16,0,0,0,1.51,1.08,3.49,3.49,0,0,0,.81.11h.11a8.16,8.16,0,0,0,2.8-.7,3.61,3.61,0,0,1,.38-.16c.9,2,1.4,3.16,1.51,3.45a10,10,0,0,1-1.51.59,10.93,10.93,0,0,1-3,.59h-.43a6.19,6.19,0,0,1-3-.86,6,6,0,0,1-3-3.34,9.47,9.47,0,0,1-.49-3.08V486h-4.26s0,0,0,0v-3.78h4.31Z" transform="translate(-57.52 -361.78)"/><path class="cls-1" d="M279.34,481.91a9.62,9.62,0,0,1,5,1.3c-.18.9-.47,2.25-.87,4a8.76,8.76,0,0,0-4.42-1.45,6.4,6.4,0,0,0-6.31,4.21,5.45,5.45,0,0,0-.38,2v15.7a.18.18,0,0,0-.11.05h-3.61l-.11-.05V482.51a.17.17,0,0,0,.11-.06h3.61l.11.06v2.21a6.52,6.52,0,0,1,3.51-2.32A12.83,12.83,0,0,1,279.34,481.91Z" transform="translate(-57.52 -361.78)"/><path class="cls-1" d="M295.67,468.27h.22a2.53,2.53,0,0,1,1.83.86,2.62,2.62,0,0,1,.76,1.73V471a2.53,2.53,0,0,1-1,2,2.44,2.44,0,0,1-1.61.65h-.17a2.57,2.57,0,0,1-2.05-1.08,2.43,2.43,0,0,1-.54-1.51v-.21A2.6,2.6,0,0,1,294,469,2.57,2.57,0,0,1,295.67,468.27Zm1.95,13.86h.05v25.62h-3.83V482.13h3.78Z" transform="translate(-57.52 -361.78)"/><path class="cls-1" d="M320.69,481.91h.71a11.81,11.81,0,0,1,7.6,3,13.45,13.45,0,0,1,2.32,2.7c-.68.47-1.72,1.17-3.13,2.1a8.73,8.73,0,0,0-4.74-3.61,7.55,7.55,0,0,0-2.22-.33h-.43a8.35,8.35,0,0,0-6,2.76,9.75,9.75,0,0,0-2.42,6.47v.11a9.45,9.45,0,0,0,2.91,6.8,8.35,8.35,0,0,0,5.77,2.37,8.51,8.51,0,0,0,6.75-3.51c.07-.11.19-.29.37-.54l3.24,2A12.38,12.38,0,0,1,321.07,508a12.13,12.13,0,0,1-8.47-3.45,13.14,13.14,0,0,1-4-9.44v-.27a13.14,13.14,0,0,1,4-9.44A11.85,11.85,0,0,1,320.69,481.91Z" transform="translate(-57.52 -361.78)"/><path class="cls-1" d="M343.5,468.27h.22a2.53,2.53,0,0,1,1.83.86,2.62,2.62,0,0,1,.76,1.73V471a2.53,2.53,0,0,1-1,2,2.44,2.44,0,0,1-1.61.65h-.17a2.57,2.57,0,0,1-2.05-1.08,2.43,2.43,0,0,1-.54-1.51v-.21a2.6,2.6,0,0,1,.87-1.89A2.57,2.57,0,0,1,343.5,468.27Zm1.95,13.86h.05v25.62h-3.83V482.13h3.78Z" transform="translate(-57.52 -361.78)"/><path class="cls-1" d="M368.52,481.91h.71a11.82,11.82,0,0,1,7.87,3.24,13.41,13.41,0,0,1-.21,19.8,12.1,12.1,0,0,1-16.46-.43,13.14,13.14,0,0,1-4-9.44v-.27a13.14,13.14,0,0,1,4-9.44A11.85,11.85,0,0,1,368.52,481.91ZM360.22,495v.11a9.32,9.32,0,0,0,2.86,6.74,8.27,8.27,0,0,0,5.82,2.43,8.45,8.45,0,0,0,6.91-3.78,9.9,9.9,0,0,0,1.72-5.5,9.56,9.56,0,0,0-3-7.07,8.24,8.24,0,0,0-5.45-2.16h-.43a8.47,8.47,0,0,0-6,2.76A9.75,9.75,0,0,0,360.22,495Zm13.48-22.06q-2.2,1.33-8.84,5.5c-.33-.54-1-1.62-2-3.24l8.9-5.45C372.08,470.26,372.73,471.32,373.7,472.91Z" transform="translate(-57.52 -361.78)"/><path class="cls-1" d="M403.09,482.13h.49q7.6,0,10.19,5.77a9.63,9.63,0,0,1,.71,3.67V507.7a.16.16,0,0,0-.11.05h-3.62a.12.12,0,0,1-.1-.05V491.57q0-4-4-5.34a13.79,13.79,0,0,0-3.72-.32,7.63,7.63,0,0,0-5,1.4c-1.33.86-2,2.36-2,4.48V507.7a.16.16,0,0,0-.1.05h-3.62l-.11-.05V482.56a.16.16,0,0,0,.11-.05h3.62l.1.05v2.54A9.73,9.73,0,0,1,403.09,482.13Z" transform="translate(-57.52 -361.78)"/><path class="cls-1" d="M68.9,393.61h6.15q3.08-6.62,11.69-25.07a1.59,1.59,0,0,1,1.54-1.07h12.14a1,1,0,0,1,.77.38.65.65,0,0,1,0,.85Q93,386.39,89.66,393.61h8.15a.75.75,0,0,1,.69.38,1,1,0,0,1,.08.85l-2.46,5.38a1.6,1.6,0,0,1-1.54.92H86.12Q76,423.28,73.52,429.66a30.54,30.54,0,0,0-2.46,10.54c0,1.84.76,2.76,2.3,2.76q3.84,0,9.84-5.61t13.07-16.53c.21-.31.46-.31.77,0s.9.95,1.77,1.92,1.36,1.52,1.46,1.62a.78.78,0,0,1,0,.92,141.21,141.21,0,0,1-10,14.84,39.41,39.41,0,0,1-8.23,8.15,22.15,22.15,0,0,1-6.46,3.23,27.39,27.39,0,0,1-6.69.69,10.25,10.25,0,0,1-8.07-3.84,13.52,13.52,0,0,1-3.31-9.08,34.32,34.32,0,0,1,2.23-11.22q2.23-6.3,11.77-26.91H65.67a.78.78,0,0,1-.69-.38.72.72,0,0,1-.08-.7l2.46-5.53A1.58,1.58,0,0,1,68.9,393.61Z" transform="translate(-57.52 -361.78)"/><path class="cls-1" d="M141.63,404.52q0,6.93-6.3,12.61a41.65,41.65,0,0,1-14.15,8.46,51.13,51.13,0,0,1-14.61,3.07,24.82,24.82,0,0,0-.61,5.39,13.2,13.2,0,0,0,1.84,7.3,6.3,6.3,0,0,0,5.69,2.84,24.87,24.87,0,0,0,6.08-.84,43.25,43.25,0,0,0,7.91-3.08,38.58,38.58,0,0,0,9.77-7.22A65.62,65.62,0,0,0,146.86,421c.2-.41.46-.47.77-.16l3.07,3.54a.75.75,0,0,1,0,.92,92.19,92.19,0,0,1-9.76,13.22,56.89,56.89,0,0,1-8.92,8.31,35,35,0,0,1-8.46,4.38,34.44,34.44,0,0,1-7.15,1.92,52.22,52.22,0,0,1-6.15.31q-9.08,0-13.6-5.92t-4.54-15A35.9,35.9,0,0,1,97,415.13a44.7,44.7,0,0,1,13.3-14.91q8.39-6,17.14-6,6.61,0,10.38,2.54T141.63,404.52Zm-12.92-4.46q-4.92,0-11.07,6.92a50.3,50.3,0,0,0-9.53,16q14.15-3.69,20.3-14,3.69-6,1.69-8.45A1.88,1.88,0,0,0,128.71,400.06Z" transform="translate(-57.52 -361.78)"/><path class="cls-1" d="M154.7,452.19a11.76,11.76,0,0,1-9.23-3.77,13.23,13.23,0,0,1-3.38-9.15,51.13,51.13,0,0,1,2.31-15.37q2.29-7.38,11.37-27.06a1.59,1.59,0,0,1,1.54-.93h12.15a.74.74,0,0,1,.69.39,1,1,0,0,1,.08.84Q160.08,419,157.62,426.36a43.87,43.87,0,0,0-2.46,13.84,6,6,0,0,0,.61,2.84,1.79,1.79,0,0,0,1.54,1.15q3.69,0,9.23-4.15a59.42,59.42,0,0,0,10.76-10.76,16.78,16.78,0,0,1-1.08-5.84,43.73,43.73,0,0,1,4.46-19.53q4.47-9.07,9.54-9.07a5.08,5.08,0,0,1,4.07,1.92q1.62,1.92,1.62,5.92,0,13.38-9.08,26.75a5.07,5.07,0,0,0,5.08,3.39q5.07,0,12.45-11.84c.21-.41.46-.47.77-.16a40.19,40.19,0,0,0,3.08,3.54.68.68,0,0,1,.15.92q-5.07,7.85-9.15,11.07a13.4,13.4,0,0,1-8.38,3.23,13,13,0,0,1-9.07-3.54,57.64,57.64,0,0,1-13.84,11.77Q160.54,452.19,154.7,452.19Z" transform="translate(-57.52 -361.78)"/><path class="cls-1" d="M249.72,404.52q0,6.93-6.3,12.61a41.65,41.65,0,0,1-14.15,8.46,51.13,51.13,0,0,1-14.61,3.07,24.82,24.82,0,0,0-.61,5.39,13.2,13.2,0,0,0,1.84,7.3,6.3,6.3,0,0,0,5.69,2.84,24.87,24.87,0,0,0,6.08-.84,43.25,43.25,0,0,0,7.91-3.08,38.58,38.58,0,0,0,9.77-7.22A65.62,65.62,0,0,0,255,421c.2-.41.46-.47.77-.16l3.07,3.54a.75.75,0,0,1,0,.92A92.19,92.19,0,0,1,249,438.5a56.89,56.89,0,0,1-8.92,8.31,35,35,0,0,1-8.46,4.38,34.44,34.44,0,0,1-7.15,1.92,52.22,52.22,0,0,1-6.15.31q-9.07,0-13.6-5.92t-4.54-15a35.9,35.9,0,0,1,4.92-17.38,44.7,44.7,0,0,1,13.3-14.91q8.38-6,17.14-6,6.62,0,10.38,2.54T249.72,404.52Zm-12.92-4.46q-4.92,0-11.07,6.92a50.3,50.3,0,0,0-9.53,16q14.15-3.69,20.3-14,3.69-6,1.69-8.45A1.88,1.88,0,0,0,236.8,400.06Z" transform="translate(-57.52 -361.78)"/><path class="cls-1" d="M305.23,425.28q-8.78,14.76-15.69,20.6A30.29,30.29,0,0,1,274,453a33.35,33.35,0,0,1-8.3.92,15.69,15.69,0,0,1-10.15-3.46,19.07,19.07,0,0,1-6.07-8.07,25.61,25.61,0,0,1-1.77-9.23q0-4.46,2.46-5.53,6.15-8.31,18.6-28.76A11.49,11.49,0,0,1,279.24,393a8.6,8.6,0,0,1,5.84,2.15q2.46,2.16,2.46,4.31c-1.94,1.84-3.17,4.54-3.69,8.07a39.61,39.61,0,0,0-.07,10.77c.46,3.63.77,7.51.92,11.6a67,67,0,0,1-.39,10.92q8-6,16.76-20a.58.58,0,0,1,.93,0l3.07,3.54A.67.67,0,0,1,305.23,425.28ZM262.48,443a6.85,6.85,0,0,0,3.84-1,5.94,5.94,0,0,0,2.31-3,22.32,22.32,0,0,0,1.15-4.23,28,28,0,0,0,.31-5.38c0-2.1-.13-4.08-.23-5.92s-.23-4-.38-6.46-.23-4.56-.23-6.31q-8.62,13.08-14,20.3a14.08,14.08,0,0,0,1.23,8.38A6.25,6.25,0,0,0,262.48,443Z" transform="translate(-57.52 -361.78)"/><path class="cls-2" d="M328.14,362.7a1.58,1.58,0,0,1,1.53-.92H342a.82.82,0,0,1,.7.31.8.8,0,0,1,.07.76l-17.37,37.21q6.3-5.22,12.45-5.22,7.08,0,11,4.84t3.92,12.38q0,8.61-4.77,18.53A47.46,47.46,0,0,1,335.36,447a22.74,22.74,0,0,0,15.07-6.76q6.46-6.31,14.76-19.38c.21-.31.46-.31.77,0,1.54,1.75,2.62,2.92,3.23,3.54a.78.78,0,0,1,0,.92q-3.54,5.85-6.23,9.69t-5.53,7.46A32.23,32.23,0,0,1,352,448a42,42,0,0,1-5.61,3.61,18.7,18.7,0,0,1-6.46,2.08,58.61,58.61,0,0,1-7.54.46,80.8,80.8,0,0,1-9.3-.62,7,7,0,0,1-1.61.54,28.26,28.26,0,0,1-3.46.46,15.19,15.19,0,0,1-4.38-.15,6.89,6.89,0,0,1-3.54-2,5.91,5.91,0,0,1-1.61-4.38,6.07,6.07,0,0,1,2.22-4.92,8.08,8.08,0,0,1,5.31-1.85q2.46,0,6.46,2.15,6.3-5.84,11.22-16.91t4.92-19.22q0-5.69-3.53-5.69a8.41,8.41,0,0,0-3.93,1.23,28.45,28.45,0,0,0-5.22,4,44,44,0,0,0-6.69,8.61,140.49,140.49,0,0,0-7.54,13.84l-8.3,18a1,1,0,0,1-.92.46,4.36,4.36,0,0,1-2.69-1,7.64,7.64,0,0,1-2.23-3.07,14.37,14.37,0,0,1-1.08-5.16,28,28,0,0,1,1-7.76,59.11,59.11,0,0,1,3.77-10.38Z" transform="translate(-57.52 -361.78)"/><path class="cls-2" d="M370.73,452.19a10.9,10.9,0,0,1-8.08-3.38,11.65,11.65,0,0,1-3.3-8.46q0-4.77,2.69-12.22t13.76-31.29a1.59,1.59,0,0,1,1.54-.93h12.3a.74.74,0,0,1,.69.39,1,1,0,0,1,.08.84q-11.69,25.07-14.61,32.75t-2.92,11.54c0,1.84.71,2.76,2.15,2.76q2.46,0,8.38-6.3a119.42,119.42,0,0,0,12.84-17.07c.31-.31.56-.31.77,0s1.38,1.49,3.23,3.54a.67.67,0,0,1,.15.92q-5.68,9.23-9.92,14.84a37.57,37.57,0,0,1-7.84,8.15,22.08,22.08,0,0,1-6,3.23A21.72,21.72,0,0,1,370.73,452.19Zm12.14-70.42a11.54,11.54,0,0,1,3.38-6.15,11,11,0,0,1,6.08-3.31,5.86,5.86,0,0,1,5.3,1.38A5.55,5.55,0,0,1,399,379a11.53,11.53,0,0,1-3.39,6.15,11.08,11.08,0,0,1-6.07,3.31,5.86,5.86,0,0,1-5.3-1.39A5.5,5.5,0,0,1,382.87,381.77Z" transform="translate(-57.52 -361.78)"/><path class="cls-2" d="M442.07,404.52q0,6.93-6.3,12.61a41.65,41.65,0,0,1-14.15,8.46A51.13,51.13,0,0,1,407,428.66a24.82,24.82,0,0,0-.61,5.39,13.2,13.2,0,0,0,1.84,7.3,6.3,6.3,0,0,0,5.69,2.84,24.73,24.73,0,0,0,6.07-.84,43,43,0,0,0,7.92-3.08,38.58,38.58,0,0,0,9.77-7.22A65.62,65.62,0,0,0,447.3,421c.2-.41.46-.47.77-.16l3.07,3.54a.75.75,0,0,1,0,.92,92.19,92.19,0,0,1-9.76,13.22,57.33,57.33,0,0,1-8.92,8.31,35.2,35.2,0,0,1-8.46,4.38,34.6,34.6,0,0,1-7.15,1.92,52.22,52.22,0,0,1-6.15.31q-9.07,0-13.61-5.92t-4.53-15a35.9,35.9,0,0,1,4.92-17.38,44.7,44.7,0,0,1,13.3-14.91q8.39-6,17.14-6,6.61,0,10.38,2.54T442.07,404.52Zm-12.92-4.46q-4.92,0-11.07,6.92a50.3,50.3,0,0,0-9.53,16q14.15-3.69,20.3-14,3.69-6,1.69-8.45A1.88,1.88,0,0,0,429.15,400.06Z" transform="translate(-57.52 -361.78)"/><path class="cls-2" d="M472.05,441a26.46,26.46,0,0,1,1.08-7.61,110,110,0,0,1,5.53-13q7.69-17.83,2.62-18.6-3.09,0-8.15,4.07a48.44,48.44,0,0,0-10,11.76l-15.68,33.68a1.49,1.49,0,0,1-1.38.92H433.76a.76.76,0,0,1-.69-.39A1,1,0,0,1,433,451l25.21-54.12a1.59,1.59,0,0,1,1.54-.93h12.3a.74.74,0,0,1,.69.39.73.73,0,0,1-.07.84l-1.85,4.15a25,25,0,0,1,6.3-4,20.22,20.22,0,0,1,5.16-1.62,42.67,42.67,0,0,1,4.84-.23,11.38,11.38,0,0,1,8.3,3,9.65,9.65,0,0,1,3.08,7.15,23.57,23.57,0,0,1-1.85,8.76q-6.3,13.38-8.61,19c-1.54,3.75-2.3,6.44-2.3,8.08,0,1.84.71,2.76,2.15,2.76q3.08,0,9.76-6.92A97.14,97.14,0,0,0,510.18,421c.21-.41.46-.47.77-.16l3.23,3.54a.75.75,0,0,1,0,.92A137.09,137.09,0,0,1,504,440.12a37.22,37.22,0,0,1-8.69,8.23,26,26,0,0,1-6.69,3.15,25.19,25.19,0,0,1-6.23.69,9.73,9.73,0,0,1-7.53-3Q472,446.19,472.05,441Z" transform="translate(-57.52 -361.78)"/><path class="cls-2" d="M531,420.16a.9.9,0,0,0-.9-1.56,49.7,49.7,0,0,1-8.11,3c-1.79.48-3.65.68-5.47,1a1.13,1.13,0,0,1,.54-.82c.25-3.15,4.19-5.59,7-6.37,4.2-1.18,8.36.8,12.61.21a.93.93,0,0,1,.7,1.7l-.09.06c-2.24,7-12.88,12.59-19,7.57C522.69,424.48,527.35,422.32,531,420.16Z" transform="translate(-57.52 -361.78)"/><path class="cls-2" d="M515.36,397.37c.4-.35,1.18-.28,1.24.38.38,4.29.87,8.94.21,13.22-.47,3.09-2.13,5.49-5.15,6.42a19.45,19.45,0,0,0,.93-3.07,28.43,28.43,0,0,0,.86-6.81.68.68,0,0,0-1.35-.1,22.23,22.23,0,0,1-1.45,6.54c-.28.72-.59,1.42-.92,2.12-5.86-6.07-.4-14.3,5.1-18.47A1.16,1.16,0,0,1,515.36,397.37Z" transform="translate(-57.52 -361.78)"/></svg>